<svg xmlns="http://www.w3.org/2000/svg" viewBox="0 0 180 95">
<!-- SVG created with Arrow, by QuiverAI (https://quiver.ai) -->
  <style type="text/css">.cls-0 {fill:#7D6034;}
.cls-1 {fill:url(#SVGID_1_);}
.cls-2 {fill:#B48F48;}
.cls-3 {fill:url(#SVGID_2_);}
.cls-4 {fill:url(#SVGID_3_);}
.cls-5 {fill:url(#SVGID_4_);}
.cls-6 {fill:url(#SVGID_5_);}
.cls-7 {fill:url(#SVGID_6_);}
.cls-8 {fill:none;stroke:#B48F48;stroke-width:0.4785;stroke-miterlimit:10;}</style>
  <path class="cls-0" d="m85.8 2.9 1.1 1.1 4.6-0.5v-0.9l-5.7 0.3z"/>
  <linearGradient id="SVGID_1_" x1="74.88" x2="96" y1="5.007" y2="5.007" gradientUnits="userSpaceOnUse">
    <stop stop-color="#C19B4C" offset="0"/>
    <stop stop-color="#FDE89E" offset=".5"/>
    <stop stop-color="#FDE89E" offset="1"/>
  </linearGradient>
  <path class="cls-1" d="m78.5 0.8-0.1 0.1 5.4 3.5-0.4 0.6-3.2 0.4-2.2-1.3-3-0.3 2.6 2.4-1.6 0.9 1.4 0.1-0.8 1 1.5-0.2 1.2-0.9 4.2-0.1-1.6 2.5c1.2 0.3 5.1-2.5 5.5-2.6 1.5 0 8.6-0.8 8.6-2.3 0-2.5-5.6-1.4-8.3-1l-7.1-2.7-2.1-0.1z"/>
  <path class="cls-0" d="m78.5 2.4c-3.2 0.1-13.2-1.1-13.8 8.9h1.9c-0.1-6.2 6.8-8.4 11.6-8.5l0.3-0.4z"/>
  <linearGradient id="SVGID_2_" x1="58.68" x2="96.49" y1="23.93" y2="23.93" gradientUnits="userSpaceOnUse">
    <stop stop-color="#C19B4C" offset="0"/>
    <stop stop-color="#FDE89E" offset=".5"/>
    <stop stop-color="#FDE89E" offset="1"/>
  </linearGradient>
  <path class="cls-3" d="m60.7 11.2c-1.3 1.2-2 1.8-2 3.8v24.3c0 2.2 2 3.6 3.6 3.6h25.1l-1.3-0.4-2.4-1.6-16.9 0.5c-1.9 0-6-1-6-3.7v-20.8c0-2.4 1.4-4.4 3.5-4.1v-1.6h-3.6z"/>
  <linearGradient id="SVGID_3_" x1="61.42" x2="83.74" y1="26.9" y2="26.9" gradientUnits="userSpaceOnUse">
    <stop stop-color="#F3D788" offset="0"/>
    <stop stop-color="#FFF6B9" offset=".5056"/>
    <stop stop-color="#FDE89E" offset="1"/>
  </linearGradient>
  <path class="cls-4" d="m64.2 13.4c-1.1 0-2.8 0.6-2.8 5.3v19.2c0 1.7 2.4 3.4 6.1 3.4h16.2c-7.1-3.9-17.6-13.1-19.1-27.6l-0.4-0.3z"/>
  <linearGradient id="SVGID_4_" x1="64.89" x2="96.49" y1="22.1" y2="22.1" gradientUnits="userSpaceOnUse">
    <stop stop-color="#C19B4C" offset="0"/>
    <stop stop-color="#FDE89E" offset=".5"/>
    <stop stop-color="#F4DA8C" offset="1"/>
  </linearGradient>
  <path class="cls-5" d="m77.8 2.5c-6.1-0.1-12.9 0.6-12.9 9.5 0 12.5 11.7 22.8 20.8 29.2 5.9 3.5 9.6 2.3 10.8 0.5-11.1 0.7-25.7-11.1-29.3-25.6-2.1-10.3 5.9-13.4 10.6-13.3v-0.3z"/>
  <linearGradient id="SVGID_5_" x1="96.22" x2="104.6" y1="26.16" y2="26.16" gradientUnits="userSpaceOnUse">
    <stop stop-color="#C19B4C" offset="0"/>
    <stop stop-color="#FDE89E" offset=".5"/>
    <stop stop-color="#F4DA8C" offset="1"/>
  </linearGradient>
  <path class="cls-6" d="m93.9 10.9 0.1 1.7c4.4 0 8.2-0.4 8.2 3.9v21.5c0 3.5-4.5 3.4-4.5 3.4l-1.5 1.3h5c1.7 0 3.4-1.2 3.4-3.4v-25.2c0-1.3-1.5-3.2-3.7-3.2h-7z"/>
  <linearGradient id="SVGID_6_" x1="82.03" x2="82.03" y1="43.66" y2="53.95" gradientUnits="userSpaceOnUse">
    <stop stop-color="#FDE89E" offset="0"/>
    <stop stop-color="#EBCC78" offset="1"/>
  </linearGradient>
  <path class="cls-7" d="m80.3 43.8-7.6 10.2h18.3l-6.7-10.3-4 0.1z"/>
  <path class="cls-2" d="m74.8 52.5-0.8 1.3h16.7l-0.9-1.3h-15z"/>
  <path class="cls-0" d="m67.4 11.3-0.2 1.2 27.5 0.1-0.1-1.4-27.2 0.1z"/>
  <linearGradient id="SVGID_7_" x1="67.31" x2="97.12" y1="12.02" y2="12.02" gradientUnits="userSpaceOnUse">
    <stop stop-color="#C19B4C" offset="0"/>
    <stop stop-color="#FDE89E" offset=".5"/>
    <stop stop-color="#F4DA8C" offset="1"/>
  </linearGradient>
  <path d="m67.4 11.2-0.1 1.3h30.2c3.2 0 4.8 1.3 4.8 5.6l0.2-2.6c0-2.4-2-3.9-4.8-3.9l-30.3-0.4z" fill="url(#SVGID_7_)"/>
  <path class="cls-0" d="m78.4 0.9 5.5 3.5-0.5 0.6-3.3 0.4-2.2-1.3-2.9-0.2 2.6 2.3-1.6 0.9 1.4 0.1-0.8 1.1 1.5-0.3 1.2-0.9 4.2-0.1-1.6 2.5c0.9 0.2 4.8-2.4 5.5-2.6 1.6 0 8.6-0.8 8.6-2.3-1.5 1-7.5 1.7-9.1 1.7l-3.8 2.2 2-2.4-5.5 0.1-1.6 0.9-0.8 0.1 1.5-1.1-2.3-1.9 1.8 0.3 2.2 1.2 4.1-0.7-0.7-0.7-5.4-3.4z"/>
  <path class="cls-0" d="m80.6 35.3 2.2 1.3 0.2 0.8 1.1 0.2-3.5-2.3z"/>
  <path class="cls-8" d="m3.2 83.3h54.8"/>
  <path class="cls-8" d="m71.9 83.1h15.5"/>
  <path class="cls-8" d="m95.8 83.1h9.7"/>
  <path class="cls-8" d="m52.7 83.1h5.3"/>
  <path class="cls-8" d="m127.4 83.3"/>
  <path class="cls-8" d="m137 83.1h16"/>
  <path class="cls-8" d="m156.5 83.1h21.1"/>
  <path class="cls-8" d="m127.3 83.3h6.6"/>
  <path class="cls-2" d="m5.9 86.6c-0.3-0.4-0.6-0.6-1.1-0.6s-1 0.4-1 1c0 1.4 2.9 0.8 2.9 3.1 0 1.2-0.9 2.1-2.1 2.1-0.8 0-1.4-0.5-1.8-1.2l0.5-0.4c0.2 0.5 0.7 0.9 1.3 0.9 0.7 0 1.2-0.5 1.2-1.2 0-1.6-2.8-0.9-2.8-3.2 0-1.1 0.8-1.6 1.7-1.6 0.6 0 1.1 0.2 1.5 0.7l-0.3 0.4z"/>
  <path class="cls-2" d="m8.5 88.3v2.2c0 0.7 0.2 1.2 1 1.2s0.9-0.5 0.9-1.2v-2l0.6-0.2v2.4c0 1-0.6 1.6-1.6 1.6s-1.7-0.6-1.7-1.6v-2.2l0.8-0.2z"/>
  <path class="cls-2" d="m18.1 88.5v3.7l-0.6 0.2v-0.6c-0.3 0.4-0.8 0.6-1.3 0.6-1.1 0-1.8-0.9-1.8-2s0.7-2.1 1.8-2.1c0.5 0 1 0.3 1.3 0.6v-0.4h0.6zm-3.1 1.8c0 0.8 0.5 1.4 1.3 1.4s1.2-0.6 1.2-1.4-0.5-1.5-1.2-1.5c-0.8 0-1.3 0.7-1.3 1.5z"/>
  <path class="cls-2" d="m21 89.1c-0.1-0.2-0.3-0.3-0.5-0.3s-0.5 0.2-0.5 0.5c0 0.4 0.5 0.5 1 0.7s1 0.5 1 1.2-0.6 1.3-1.3 1.3c-0.6 0-1.2-0.3-1.4-0.9l0.5-0.2c0.2 0.3 0.4 0.6 0.9 0.6 0.4 0 0.7-0.2 0.7-0.6 0-0.9-1.8-0.6-1.8-1.9 0-0.7 0.5-1.2 1.2-1.2 0.4 0 0.9 0.3 1.1 0.7l-0.9 0.1z"/>
  <path class="cls-2" d="m23.2 90.5c0 0.7 0.5 1.3 1.3 1.3 0.6 0 0.9-0.3 1.2-0.8l0.5 0.3c-0.4 0.7-1 1.1-1.8 1.1-1.1 0-1.9-0.9-1.9-1.9 0-1.1 0.7-2.1 1.9-2.1s1.9 1 1.9 2.1h-3.1zm2.4-0.5c-0.1-0.6-0.6-1-1.1-1-0.6 0-1.1 0.4-1.2 1h2.3z"/>
  <path class="cls-2" d="m28.9 89.1c-0.1-0.2-0.3-0.3-0.5-0.3s-0.5 0.2-0.5 0.5c0 0.4 0.5 0.5 1 0.7s1 0.5 1 1.2-0.6 1.3-1.3 1.3c-0.6 0-1.2-0.3-1.4-0.9l0.5-0.2c0.2 0.3 0.4 0.6 0.9 0.6 0.4 0 0.7-0.2 0.7-0.6 0-0.9-1.8-0.6-1.8-1.9 0-0.7 0.5-1.2 1.2-1.2 0.4 0 0.9 0.3 1.1 0.7l-0.9 0.1z"/>
  <path class="cls-2" d="m30.5 90.4c0-1.1 0.9-2.1 2-2.1s2.1 0.9 2.1 2.1c0 1.1-0.9 2-2 2-1.2 0-2.1-0.9-2.1-2zm0.6 0c0 0.8 0.6 1.4 1.4 1.4s1.4-0.6 1.4-1.4-0.6-1.5-1.4-1.5-1.4 0.7-1.4 1.5z"/>
  <path class="cls-2" d="m36.3 88.8c0.2-0.3 0.5-0.5 0.9-0.5 0.2 0 0.4 0.1 0.6 0.2l-0.3 0.6c-0.1-0.1-0.2-0.2-0.4-0.2-0.7 0-0.8 0.9-0.8 1.5v1.9h-0.6v-3.8l0.6-0.2v0.5z"/>
  <path class="cls-2" d="m44.3 91.7c-0.3 0.4-0.8 0.7-1.4 0.7-1.1 0-2-0.9-2-2s0.7-2.1 1.9-2.1c0.5 0 1 0.2 1.3 0.6v-3.6l0.7-0.1v6.9l-0.7 0.2v-0.6zm-2.6-1.4c0 0.8 0.5 1.4 1.3 1.4s1.3-0.6 1.3-1.4-0.5-1.5-1.3-1.5c-0.8 0.1-1.3 0.8-1.3 1.5z"/>
  <path class="cls-2" d="m46.3 90.5c0 0.7 0.5 1.3 1.3 1.3 0.6 0 0.9-0.3 1.2-0.8l0.5 0.3c-0.4 0.7-1 1.1-1.8 1.1-1.1 0-1.9-0.9-1.9-1.9 0-1.1 0.7-2.2 1.9-2.2s2.1 1 2 2.1h-3.2zm2.4-0.5c-0.1-0.6-0.6-1-1.1-1-0.6 0-1.1 0.4-1.2 1h2.3z"/>
  <path class="cls-2" d="m54.5 91 1.1-2.7 0.7 0.1-1.8 3.9-1.8-3.9 0.5-0.1 1.3 2.7z"/>
  <path class="cls-2" d="m58 86.3c0 0.3-0.2 0.5-0.4 0.5s-0.5-0.2-0.5-0.5c0-0.2 0.2-0.4 0.5-0.4 0.2 0 0.4 0.2 0.4 0.4zm-0.2 5.9h-0.6v-3.8h0.7v3.8z"/>
  <path class="cls-2" d="m63 88.5v3.7l-0.6 0.1v-0.6c-0.3 0.4-0.8 0.6-1.4 0.6-1.1 0-1.9-0.9-1.9-1.9 0-1.1 0.7-2.1 1.9-2.1 0.5 0 1 0.2 1.3 0.6v-0.4h0.7zm-3.2 1.8c0 0.8 0.5 1.4 1.3 1.4s1.3-0.6 1.3-1.4-0.5-1.5-1.3-1.5c-0.8 0.1-1.3 0.8-1.3 1.5z"/>
  <path class="cls-2" d="m65.3 86.4c0 0.3-0.2 0.5-0.4 0.5s-0.5-0.2-0.5-0.5c0-0.2 0.2-0.4 0.5-0.4 0.2 0 0.4 0.2 0.4 0.4zm-0.1 7.8-0.7-0.2v-5.5l0.7-0.2v5.9z"/>
  <path class="cls-2" d="m66.9 90.5c0 0.7 0.5 1.3 1.3 1.3 0.6 0 0.9-0.3 1.2-0.8l0.5 0.3c-0.4 0.7-1 1.1-1.8 1.1-1.1 0-1.9-0.9-1.9-1.9 0-1.1 0.7-2.2 1.9-2.2s1.9 1 1.9 2.2h-3.1zm2.4-0.5c-0.1-0.6-0.6-1-1.1-1-0.6 0-1.1 0.4-1.2 1h2.3z"/>
  <path class="cls-2" d="m72.6 89.2c-0.1-0.2-0.3-0.4-0.5-0.4s-0.5 0.2-0.5 0.5c0 0.4 0.5 0.5 1 0.7s0.9 0.5 0.9 1.2-0.6 1.3-1.3 1.3c-0.6 0-1.2-0.3-1.4-0.9l0.5-0.2c0.2 0.3 0.4 0.6 0.9 0.6 0.4 0 0.7-0.2 0.7-0.6 0-0.9-1.8-0.6-1.9-1.8 0-0.7 0.5-1.2 1.2-1.2 0.4 0 0.9 0.3 1.1 0.7l-0.7 0.1z"/>
  <path class="cls-2" d="m77.5 88.9c0.3-0.4 0.8-0.6 1.4-0.6 1.1 0 1.8 1 1.8 2.1s-0.7 2-1.8 2c-0.5 0-1-0.2-1.3-0.7v2.5l-0.7 0.1v-5.9l0.7-0.1-0.1 0.6zm0 1.4c0 0.8 0.5 1.4 1.3 1.4s1.3-0.6 1.3-1.4-0.5-1.5-1.3-1.5c-0.8 0.1-1.3 0.8-1.3 1.5z"/>
  <path class="cls-2" d="m82.1 90.5c0 0.7 0.5 1.3 1.3 1.3 0.6 0 0.9-0.3 1.2-0.8l0.5 0.3c-0.4 0.7-1 1.1-1.8 1.1-1.1 0-1.9-0.9-1.9-1.9 0-1.1 0.7-2.2 1.9-2.2s1.9 1 1.9 2.2h-3.1zm2.4-0.5c-0.1-0.6-0.6-1-1.1-1-0.6 0-1.1 0.4-1.2 1h2.3z"/>
  <path class="cls-2" d="m86.8 88.8c0.2-0.3 0.5-0.5 0.9-0.5 0.2 0 0.4 0.1 0.7 0.2l-0.3 0.6c-0.1-0.1-0.2-0.2-0.4-0.2-0.7 0-0.8 0.9-0.8 1.5v1.8h-0.6v-3.8l0.6-0.1-0.1 0.5z"/>
  <path class="cls-2" d="m90.6 89.2c-0.1-0.2-0.3-0.4-0.5-0.4s-0.5 0.2-0.5 0.5c0 0.4 0.5 0.5 1 0.7s0.9 0.5 0.9 1.2-0.6 1.3-1.3 1.3c-0.6 0-1.2-0.3-1.4-0.9l0.5-0.2c0.2 0.3 0.4 0.6 0.9 0.6 0.4 0 0.7-0.2 0.7-0.6 0-0.9-1.8-0.6-1.9-1.8 0-0.7 0.5-1.2 1.2-1.2 0.4 0 0.9 0.3 1.1 0.7l-0.7 0.1z"/>
  <path class="cls-2" d="m92.2 90.4c0-1.1 0.9-2.1 2-2.1s2.1 0.9 2.1 2.1c0 1.1-0.9 2-2 2-1.2 0-2.1-0.9-2.1-2zm0.6 0c0 0.8 0.6 1.4 1.4 1.4s1.4-0.6 1.4-1.4-0.6-1.5-1.4-1.5-1.4 0.7-1.4 1.5z"/>
  <path class="cls-2" d="m98 88.8c0.3-0.4 0.7-0.6 1.2-0.6 1.1 0 1.4 0.7 1.4 1.6v2.4h-0.6v-2.3c0-0.6-0.1-1.1-0.8-1.1-0.9 0-1.1 0.8-1.1 1.6v1.7l-0.7 0.1v-3.8l0.7-0.1-0.1 0.5z"/>
  <path class="cls-2" d="m105.8 88.5v3.7l-0.6 0.1v-0.6c-0.3 0.4-0.8 0.7-1.4 0.7-1.1 0-1.8-0.9-1.8-2s0.7-2.1 1.8-2.1c0.5 0 1 0.2 1.3 0.6v-0.4h0.7zm-3.2 1.8c0 0.8 0.5 1.5 1.3 1.5s1.3-0.6 1.3-1.4-0.5-1.5-1.3-1.5-1.3 0.7-1.3 1.4z"/>
  <path class="cls-2" d="m107.9 92.2h-0.6v-7.3l0.6 0.1v7.2z"/>
  <linearGradient id="SVGID_8_" x1="90.41" x2="90.41" y1="57.15" y2="81.7" gradientUnits="userSpaceOnUse">
    <stop stop-color="#C19B4C" offset="0"/>
    <stop stop-color="#FDE89E" offset=".25"/>
    <stop stop-color="#D4B464" offset=".5"/>
    <stop stop-color="#FDE89E" offset=".75"/>
    <stop stop-color="#C19B4C" offset="1"/>
  </linearGradient>
  <path d="m17.1 65.1 1.3-2.8c0.5-2.9-4.8-4.4-9-4.4-3.2 0.3-6.6 1.7-6.6 6.6 0.2 6.9 10.2 6.3 10.3 11.7-0.3 2.1-2.2 3.6-4.1 3.1-3.4-1.1-2.1-4.4-2.3-5.5l-2.4-0.3-1.7 3.8c-0.2 2.2 3 4.1 7.1 4.2 5 0.1 9.2-1.7 9-6.6-0.3-7.1-10.6-6.9-10.6-11.1-0.2-5.1 5.7-5.9 5.8 1.3l2.7 0.2 0.5-0.2zm16.2-6.6h-9l-0.2 1.3h1.7l-5.5 19.5-1.9 0.3v1.5h7.1v-1.3h-1.9l1.2-4.2h6.7l1.1 4-1.5 0.2v1.3h10v-1.5h-1.6l-6.2-21.1zm-7.9 15.3 2.7-9.7 2.8 9.7h-5.5zm16.5-15.3-0.1 1.5h2l0.1 19.5-2.1 0.1v1.5h11.7v-1.6l-3.1-0.2v-7.2h6.4v-1.7l-1.7-0.4h-4.7v-10h2.1c2.2 0 2.1 4.5 2.6 5.3l3.2-0.2 0.9-5.5-1.8-1.2-15.5 0.1zm18.1 1.3 0.4-1.3h16.1l0.8 0.6-0.8 6.2-2.9-0.2c-0.6-1.5-0.7-5.1-3.1-5l-2 0.1v9.8h7v2.1h-7l0.1 7.2c0.8 0.3 3.3 0.3 3.8-0.3 1.1-0.8 1.1-3.9 1.6-5l3-0.1 0.9 6.2-0.9 1-17.3 0.1v-1.6l2-0.1v-19.4l-1.7-0.3zm24.1-1.3-0.7 0.9 0.9 5.9 3-0.3c0.4-1.6 0.2-5 2.3-5l0.7 0.2 0.1 19.3h-3.3l0.2 1.6h12.3l0.1-1.6-3.1-0.2-0.1-19.2 0.5-0.1c2.2 0 2 3.6 2.5 5.1l3.3 0.2 0.9-5.9-0.9-1c-4.2-0.8-13.9 0-18.7 0.1zm32.1-4.2c-5.8 0-12.2 4.6-12.1 13.1 0.3 9.5 9.7 18.6 12.4 21.5 2.8-1.5 12-10.9 12.2-20.7 0-8.7-6.5-13.9-12.5-13.9zm0.2 19.2c-3.5 0-6.7-2.9-6.7-6.2s2.8-6.2 6.5-6.2c3.5 0 6.7 2.8 6.7 6.3s-2.9 6.1-6.5 6.1zm14.1-15.1-0.1 1.6 2 0.2v13.4c0.5 4.9 3.6 8.2 9.4 8.2 5.5 0.1 8.6-2.4 8.6-7.1v-14.3l1.5-0.4v-1.5l-7.5-0.1-0.1 1.6 1.7 0.2 0.2 13.7c-0.1 2.3-1.7 4.7-4.1 4.6-2.7 0-3.1-2.3-3.1-4.9v-13.2l1.8-0.4-0.1-1.3-10.2-0.3zm37.5 13.2c2.6-1.1 4.5-2.2 4.4-6.1 0-4.4-4.5-7.1-9.7-7.1h-9.1v1.6l2 0.2 0.2 19.1-1.9 0.2v1.6h10.7l0.1-1.3-2.3-0.5-0.2-6.7c1.7-0.2 1.9 5.6 3.4 7.2 0.9 1.8 7.1 2.7 9.5-0.4l-0.8-1-2.2 0.1c-1.7 1.1-1.3-5.6-4-6.6l-0.1-0.3zm-5.8-1.5-0.1-9.7c5 0.1 5.8 8.7 0.1 9.7zm-46-6.7c-2.1 0-3.8 1.7-3.8 4 0 2.1 1.7 4 3.8 4s4.2-1.8 4.2-4c0-2.3-1.8-4-4.2-4zm-6.2 25c-2.7 2.1 2.7 3 6.2 3 3 0 8.3-0.9 6.7-2.7-3.9-2.7-2.8 0-6 1.5-2.5 1.4-5-4.8-6.9-1.8z" fill="url(#SVGID_8_)" stroke="#7D6034" stroke-miterlimit="10" stroke-width=".125"/>
  <linearGradient id="SVGID_9_" x1="116.4" x2="116.4" y1="55.42" y2="87.15" gradientUnits="userSpaceOnUse">
    <stop stop-color="#FBF7C1" offset="0"/>
    <stop stop-color="#E2BD60" offset="1"/>
  </linearGradient>
  <path d="m116.2 55.4c-5.1 0-10.8 4.1-10.7 11.7 0.2 8.5 8.5 17.4 10.9 20 2.5-1.5 10.7-9.7 11-18.4 0.1-7.6-5.8-13.3-11.2-13.3zm0.2 20.2c-4.3 0-7.8-4-7.8-8.2 0-4 3.3-7.8 7.8-7.6 4.2 0 7.9 3.2 7.9 7.6s-3.6 8.2-7.9 8.2z" fill="url(#SVGID_9_)"/>
  <linearGradient id="SVGID_10_" x1="116.4" x2="116.4" y1="63.78" y2="71.15" gradientUnits="userSpaceOnUse">
    <stop stop-color="#FBF7C1" offset="0"/>
    <stop stop-color="#E2BD60" offset="1"/>
  </linearGradient>
  <circle cx="116.4" cy="67.4" r="3.7" fill="url(#SVGID_10_)"/>
</svg>