<svg xmlns="http://www.w3.org/2000/svg" viewBox="0 0 150 80">
<!-- SVG created with Arrow, by QuiverAI (https://quiver.ai) -->
  <style type="text/css">.cls-0 {fill:#FF8300;}
.cls-1 {fill:#020202;}
.cls-2 {fill:#FF8200;}
.cls-3 {fill:#666666;}
.cls-4 {fill:none;stroke:#FF8300;stroke-width:0.4369;stroke-miterlimit:10;}</style>
  <path class="cls-0" d="m64.3 2.2c-6.1-0.6-10.6 1.5-11.1 7-0.4 7.5 6.3 18.4 17.3 24.8 3.5 2 6.5 2.6 8.4 1.8 0.8-0.2 1.3-1.1 1.5-1.2-3.7 1-11.3-1.2-17.5-7.6-4.2-4.2-7.2-9.7-8-16.7-0.2-3.7 2.9-7.9 9.4-7.9v-0.2z"/>
  <path class="cls-2" d="m64.8 0.7 5 3.3-3.4 0.6-1.9-1h-2.6l2.3 1.9-1.6 0.7 1.1 0.1-0.3 0.5 1.3-0.2 0.9-0.6h3.8l-1.9 1.9c1.2 0 3-0.9 4.6-2.2 2.8 0.1 7.5-0.9 7.5-1.9-0.1-0.5-1.4-1-2.5-1.2-1.2 0-3 0.3-4.8 0.7l-5.7-2.4-1.8-0.2z"/>
  <path class="cls-1" d="m66.5 36.8-6.2 8.4h15.3l-5.8-8.4h-3.3z"/>
  <path class="cls-1" d="m50.5 9c-2.3 0.4-2.7 3.6-2.5 6.7l-0.1 17.1c0.4 2.8 3.9 3 5.9 2.9 3.5-0.1 10.3-0.1 19.2-0.1-1.1-0.2-2.1-0.8-3-1.2h-10.1c-4.4-0.2-8.6 0.4-9.9-2.6-0.1-6.8 0-12.6 0-16.2 0.1-3 0.8-5.3 2.4-5.2h0.8v-1.4h-2.7z"/>
  <path class="cls-1" d="m52.4 10.9c-1.3 0.3-2 2.1-1.9 6.1v14.6c0.9 2.4 4.2 2.6 7.5 2.6h8.9l2.6-0.1c-6.4-3.6-15.8-12.4-16.4-23.2h-0.7z"/>
  <path class="cls-2" d="m97.3 46.2c-5.3 0-10.4 4.5-10.5 10.3-0.1 7.4 7.1 14.7 10.1 18.2 0.4 0.5 0.9 0.5 1.2 0.2 2.9-2.8 9.6-9.6 9.7-17.5 0.1-6.2-4.7-11.2-10.5-11.2zm0 16c-2.9 0-5.5-2.4-5.5-5.5 0-2.9 2.4-5.6 5.5-5.6 3.2 0 5.6 2.3 5.6 5.5 0 3.1-2.6 5.6-5.6 5.6z"/>
  <path class="cls-2" d="m97.3 53.3c-1.8 0-3.4 1.5-3.4 3.3s1.6 3.3 3.4 3.3 3.5-1.4 3.4-3.3c0-1.8-1.4-3.3-3.4-3.3z"/>
  <path class="cls-2" d="m94.4 73.6c-1.2 0-2.9 0.8-2.8 1.6 0.1 1 2.3 1.8 5.7 1.9 2.8 0 5.8-0.6 5.8-1.9 0-0.8-1-1.3-2.6-1.6l-1.9 2c-0.7 0.5-1.5 0.5-2.2 0l-2-2z"/>
  <path class="cls-1" d="m7.9 48.8c-3.7 0-5.5 2.4-5.5 5.3 0 6.2 8.4 5.7 8.4 10 0 1.5-1.3 2.9-3.3 2.9-2.1 0-3-1.4-3-2.2v-2.4l-0.9-0.4-1.3 2.6c-1.1 2.2 2.7 3.8 5.5 3.8 3.9 0.1 6.3-1.7 6.3-5 0-6-8.1-5.8-8.5-9-0.5-1.4-0.1-4.2 2.6-4.3 1.5-0.1 3.3 0.9 3.3 2.5v2.2l0.9 0.4 1.3-2.6c1.3-2.6-3.2-3.9-5.8-3.8z"/>
  <path class="cls-1" d="m19.8 49.2v1h1.8l-5 16.7h-1.3v1.1h4.4v-1.1h-1.4l0.9-3.4h7.3l1 3.4h-1.6v1.1h7v-1.1h-1.3l-5.4-17.7h-6.4zm3.1 2.3 3.2 10.7h-6.4l3.2-10.7z"/>
  <path class="cls-1" d="m35 49.2v1.1h1.6v16.6h-1.7v1.1h8.7v-1.1h-2.9v-6.4h5.6v-1.3h-5.6v-8.9h2.3c2.5 0 2.7 0.8 3.3 4.5h1.3l0.7-4.1c0.2-0.8-0.2-1.5-1-1.5h-12.3z"/>
  <path class="cls-1" d="m50.5 49.2v1.1h1.7v16.6h-1.7v1.1h12.9c0.8 0 1.1-0.5 1-1.3l-0.7-4.2h-1.1l-0.7 2.8c-0.4 1.4-2.2 1.5-5.6 1.5v-6.3h6.2v-1.2h-6.1v-9c3.8 0 4.7-0.3 5.5 4.5h1.3l0.6-4.2c0.1-0.7-0.2-1.3-0.9-1.3l-12.4-0.1z"/>
  <path class="cls-1" d="m71.9 49.2c-0.9 0-1.1 0.6-1 1.4l0.6 4.2h1.2l0.6-2.9c0.3-1.4 1.1-1.6 3.3-1.6v16.5h-2.5v1.2h9.2v-1.2h-2.7v-16.5c2.3 0 3.1 0.1 3.5 1.6l0.6 2.9h1.2l0.7-4.2c0.1-0.7-0.2-1.4-1-1.4h-13.7z"/>
  <path class="cls-1" d="m110.9 49.5v1.1h1.5v10.9c0 4.3 2.1 7.3 7.1 7.3 4.6 0 7.3-1.8 7.3-6.9v-11.2h1.6v-1.1h-5.4v1h1.6v11.9c0 4.1-7.9 6.7-8 0v-11.8h1.4v-1.1l-7.1-0.1z"/>
  <path class="cls-1" d="m131 49.5v1.2h1.6v16.6h-1.6v1.1h7.5v-1.1h-2v-6.1c1.9 0 2.1 0.4 2.5 1.8l1 3.6c0.4 1.3 1.1 2.2 2.9 2.2 2 0.2 4.3-1.4 4.3-2l-0.5-0.6c-1.2 0.9-2.5 1.2-2.9-0.2l-0.9-3.1c-0.3-0.9-1-2-2-2.3 2-0.8 4.2-1.8 4.2-5.2 0-4.2-3.2-5.8-8.2-5.8l-5.9-0.1zm5.5 1.1c2.2 0 4.7 1.4 4.7 4.8 0 3.3-2.6 4.7-4.7 4.7v-9.5z"/>
  <path class="cls-3" d="m4.7 76c0 0.9-0.6 1.5-1.5 1.5-0.7 0-1.2-0.4-1.3-1.1l0.5-0.2c0.2 0.6 0.5 0.9 1 0.9 0.6 0 1-0.4 1-1 0-0.5-0.3-0.8-0.8-1.1l-0.6-0.3c-0.6-0.3-0.9-0.7-0.9-1.3 0-0.7 0.5-1.5 1.4-1.5 0.6 0 1.1 0.3 1.2 0.8l-0.3 0.2c-0.2-0.3-0.5-0.6-0.9-0.6-0.5 0-0.9 0.3-0.9 0.8s0.3 0.7 0.8 1l0.6 0.3c0.4 0.3 0.7 0.8 0.7 1.6z"/>
  <path class="cls-3" d="m6.2 75.5c0 0.9 0.2 1.5 0.8 1.5 0.8 0 0.9-0.4 0.9-1.4v-1.6h0.5v1.9c0 1-0.5 1.6-1.4 1.6s-1.3-0.5-1.3-1.5v-2h0.5v1.5z"/>
  <path class="cls-3" d="m14.4 76.8c-0.3 0.4-0.8 0.7-1.3 0.7-0.9 0-1.9-0.5-1.9-1.7s0.7-1.9 1.5-1.9c0.5 0 0.9 0.2 1.2 0.6v-0.4h0.3v3.2h-0.5l0.7-0.5zm-1.5 0.2c0.7 0 1-0.5 1-1.4 0-0.7-0.3-1.2-1-1.2s-1.2 0.5-1.2 1.4c0 0.8 0.4 1.4 1.2 1.2z"/>
  <path class="cls-3" d="m15.5 76.6 0.5-0.2c0.1 0.4 0.4 0.6 0.7 0.6 0.4 0 0.7-0.2 0.7-0.5 0-0.4-0.2-0.5-0.7-0.7-0.6-0.3-1.2-0.4-1.2-1s0.5-0.9 1-0.9c0.6 0 1 0.2 1.1 0.7l-0.4 0.2c-0.1-0.3-0.3-0.4-0.7-0.4-0.3 0-0.6 0.2-0.6 0.4 0 0.4 0.3 0.5 0.8 0.7 0.7 0.3 0.8 0.5 0.8 1 0 0.6-0.4 1-1.1 1-0.5 0-0.9-0.2-0.9-0.9z"/>
  <path class="cls-3" d="m18.7 75.6c0 0.8 0.5 1.4 1 1.4 0.7 0 1-0.2 1.2-0.6l0.3 0.2c-0.2 0.5-0.7 0.9-1.5 0.9-1 0-1.6-0.7-1.6-1.7 0-1.1 0.6-1.8 1.6-1.8 0.9 0 1.5 0.6 1.5 1.6v0.2h-2.6v-0.2h0.1zm1-1.2c-0.5 0-1 0.3-1 0.9h1.9c0-0.6-0.4-0.9-0.9-0.9z"/>
  <path class="cls-3" d="m21.9 76.6 0.5-0.2c0.1 0.4 0.3 0.6 0.7 0.6s0.6-0.2 0.6-0.5c0-0.4-0.1-0.5-0.6-0.7-0.6-0.3-1.1-0.4-1.1-1s0.4-0.9 1-0.9 1 0.2 1.1 0.7l-0.4 0.2c-0.1-0.3-0.3-0.4-0.7-0.4s-0.6 0.2-0.6 0.4c0 0.4 0.2 0.5 0.7 0.7 0.8 0.3 1 0.5 1 1 0 0.6-0.5 1-1.1 1-0.5 0-0.9-0.2-1.1-0.9z"/>
  <path class="cls-3" d="m24.7 75.6c0-0.9 0.8-1.6 1.8-1.6 0.9 0 1.8 0.7 1.8 1.8 0 1-0.8 1.7-1.8 1.7-0.9 0-1.8-0.7-1.8-1.9zm3 0.2c0-0.8-0.6-1.4-1.2-1.4-0.8 0-1.3 0.6-1.3 1.4 0 0.7 0.7 1.3 1.3 1.3 0.7 0 1.2-0.6 1.2-1.3z"/>
  <path class="cls-3" d="m31 73.9c0.1 0 0.2 0 0.4 0.1l-0.2 0.4h-0.3c-0.5 0-1 0.5-1 1.4v1.5h-0.6v-3.2h0.5v0.7c0.4-0.7 0.7-0.9 1.2-0.9z"/>
  <path class="cls-3" d="m36.6 76.9c-0.2 0.4-0.6 0.6-1.1 0.6-0.9 0-1.8-0.5-1.8-1.7s0.7-1.8 1.5-1.8c0.5 0 0.9 0.2 1.3 0.6v-3.2h0.5v5.9h-0.4v-0.4zm-1.1 0.1c0.6 0 1.1-0.5 1.1-1.4 0-0.7-0.5-1.2-1.1-1.2-0.8 0-1.1 0.5-1.1 1.4 0 0.8 0.3 1.2 1.1 1.2z"/>
  <path class="cls-3" d="m38.4 75.6c0 0.8 0.5 1.4 1.1 1.4s0.9-0.2 1.1-0.6l0.5 0.2c-0.2 0.5-0.7 0.9-1.6 0.9-1 0-1.6-0.7-1.6-1.7 0-1.1 0.6-1.8 1.6-1.8 0.9 0 1.6 0.6 1.6 1.6v0.2h-2.7v-0.2zm1.1-1.2c-0.6 0-1 0.3-1.1 0.9h2c0-0.6-0.4-0.9-0.9-0.9z"/>
  <path class="cls-3" d="m43.7 74h0.5l1 2.4 1-2.4h0.6l-1.6 3.6-1.5-3.6z"/>
  <path class="cls-3" d="m47.8 72.4c0.2 0 0.4 0.2 0.4 0.4s-0.2 0.4-0.4 0.4-0.4-0.2-0.4-0.4 0.2-0.4 0.4-0.4zm-0.3 1.6h0.6v3.3h-0.6v-3.3z"/>
  <path class="cls-3" d="m52 76.8c-0.3 0.4-0.6 0.6-1.1 0.6-1 0-1.8-0.5-1.8-1.8 0-1 0.6-1.7 1.5-1.7 0.5 0 0.9 0.2 1.3 0.6v-0.4h0.5v3.2h-0.5l0.1-0.5zm-1.3 0.2c0.8 0 1.3-0.5 1.3-1.4 0-0.7-0.5-1.2-1.1-1.2-0.8 0-1.2 0.5-1.2 1.4 0 0.8 0.4 1.2 1 1.2z"/>
  <path class="cls-3" d="m53.9 72.4c0.2 0 0.4 0.2 0.4 0.4s-0.2 0.3-0.4 0.3c-0.3 0-0.4-0.1-0.4-0.3s0.2-0.4 0.4-0.4zm-0.2 1.5h0.5v5.1h-0.5v-5.1z"/>
  <path class="cls-3" d="m55.6 75.6c0 0.8 0.4 1.4 1 1.4s0.9-0.2 1.2-0.6l0.5 0.2c-0.4 0.5-0.8 0.9-1.6 0.9-0.9 0-1.6-0.7-1.6-1.7 0-1.1 0.7-1.9 1.6-1.9s1.6 0.7 1.6 1.7v0.2h-2.7v-0.2zm1.1-1.2c-0.6 0-1 0.3-1.1 0.9h2c0-0.6-0.4-0.9-0.9-0.9z"/>
  <path class="cls-3" d="m58.8 76.6 0.5-0.2c0.1 0.4 0.3 0.6 0.8 0.6s0.6-0.2 0.6-0.5c0-0.4-0.2-0.5-0.6-0.7-0.6-0.3-1.2-0.4-1.2-1s0.5-0.9 1-0.9c0.6 0 1.1 0.2 1.2 0.7l-0.4 0.2c-0.1-0.3-0.3-0.4-0.6-0.4-0.4 0-0.6 0.2-0.6 0.4 0 0.4 0.2 0.5 0.7 0.7 0.7 0.3 1 0.5 1 1 0 0.6-0.5 1-1.1 1-0.7 0-1-0.2-1.3-0.9z"/>
  <path class="cls-3" d="m64.4 74h0.3v0.6c0.3-0.5 0.8-0.7 1.2-0.7 1 0 1.6 0.7 1.6 1.7 0 1.2-0.6 1.9-1.4 1.9-0.5 0-1-0.2-1.2-0.7v2.2h-0.5v-5zm1.5 0.4c-0.8 0-1.1 0.5-1.1 1.4 0 0.7 0.4 1.2 1.1 1.2s1-0.5 1-1.4c0.1-0.8-0.4-1.2-1-1.2z"/>
  <path class="cls-3" d="m68.6 75.6c0 0.8 0.4 1.4 1 1.4s0.9-0.2 1.2-0.6l0.3 0.2c-0.2 0.5-0.7 0.9-1.5 0.9-1 0-1.5-0.7-1.5-1.7 0-1.1 0.5-1.9 1.5-1.9 0.9 0 1.5 0.7 1.5 1.7v0.2h-2.5v-0.2zm1-1.2c-0.6 0-1 0.3-1 0.9h1.9c0-0.6-0.3-0.9-0.9-0.9z"/>
  <path class="cls-3" d="m73.7 73.9c0.2 0 0.3 0 0.4 0.1l-0.1 0.4h-0.4c-0.5 0-1 0.5-1 1.4v1.5h-0.5v-3.3h0.5v0.7c0.3-0.6 0.6-0.8 1.1-0.8z"/>
  <path class="cls-3" d="m74.1 76.6 0.5-0.2c0.1 0.4 0.4 0.6 0.8 0.6 0.3 0 0.6-0.2 0.6-0.5 0-0.4-0.3-0.5-0.6-0.7-0.7-0.3-1.2-0.4-1.2-1s0.4-0.9 1-0.9c0.7 0 1 0.2 1.3 0.7l-0.5 0.2c-0.1-0.3-0.4-0.4-0.6-0.4-0.4 0-0.7 0.2-0.7 0.4 0 0.4 0.3 0.5 0.8 0.7 0.6 0.3 1 0.5 1 1 0 0.6-0.5 1-1.1 1-0.7 0-1-0.2-1.3-0.9z"/>
  <path class="cls-3" d="m77.1 75.6c0-0.9 0.6-1.6 1.6-1.6s1.8 0.7 1.8 1.6c0 1.2-0.8 1.9-1.8 1.9-0.8 0-1.6-0.7-1.6-1.9zm2.9 0.2c0-0.8-0.5-1.4-1.3-1.4s-1.2 0.6-1.2 1.4c0 0.7 0.6 1.3 1.2 1.3 0.8 0 1.3-0.6 1.3-1.3z"/>
  <path class="cls-3" d="m81.5 74h0.5v0.5c0.2-0.4 0.6-0.6 1.1-0.6 0.8 0 1.3 0.5 1.2 1.4v2.1h-0.4v-1.9c0-0.8-0.3-1.1-0.8-1.1-0.7 0-1 0.3-1 1.1v1.9h-0.5l-0.1-3.4z"/>
  <path class="cls-3" d="m88.1 76.8c-0.2 0.4-0.6 0.7-1.2 0.7-0.9 0-1.5-0.6-1.5-1.7s0.6-1.8 1.5-1.8c0.5 0 0.8 0.2 1.2 0.6v-0.5h0.5v3.2h-0.5v-0.5zm-1.1 0.2c0.7 0 1.1-0.5 1.1-1.4 0-0.7-0.4-1.2-1-1.2-0.7 0-1.2 0.5-1.2 1.4 0 0.8 0.5 1.2 1.1 1.2z"/>
  <path class="cls-3" d="m90 71.4h0.5v5.9h-0.5v-5.9z"/>
  <line class="cls-4" x1="1.7" x2="88.2" y1="70" y2="70"/>
  <line class="cls-4" x1="106.7" x2="149.1" y1="70" y2="70"/>
</svg>