<svg xmlns="http://www.w3.org/2000/svg" viewBox="0 0 150 106">
<!-- SVG created with Arrow, by QuiverAI (https://quiver.ai) -->
  <style type="text/css">.cls-0 {fill:#041835;}
.cls-1 {fill:#A77618;}
.cls-2 {fill:#BA914B;}
.cls-3 {fill:none;stroke:#A77618;stroke-width:0.3392;stroke-miterlimit:10;}
.cls-4 {fill:none;stroke:#A77618;stroke-width:0.3082;stroke-miterlimit:10;}</style>
  <path class="cls-0" d="m66.1 38.3h0.3c1.5 4.6 4.6 8 8.8 8 3.8 0.1 6.4-2.5 6.4-5.9 0-7.7-15.3-9.5-15.3-18.5 0-4.3 3.7-7.6 8.8-7.6 2.3 0 4.6 0.6 6.8 1.4v5.3h-0.3c-0.8-3.7-3-6.1-6.7-6.1-3.5 0-6.3 2.2-6.3 5.6 0 7 15.6 8.5 15.7 18.2 0 4.4-3.7 8.1-9.1 8.1-3.1 0-6.1-0.9-9.1-2.5v-6z"/>
  <path class="cls-0" d="m83.4 53.8c3.2-0.1 4.1-0.7 4.1-3.3v-21.8c0-0.7-0.1-0.7-0.8-0.7h-8.4l-1.1-0.8h23.8v4.8h-0.2c-1-2.7-2.7-4-5.3-4h-3.9c-0.8 0-0.9 0.2-0.9 0.9v21.5c0 2.6 0.7 3.3 3.9 3.4v0.4h-11.2v-0.4z"/>
  <path class="cls-2" d="m110.7 31.9c-0.4 0.7-1.4 1.6-3.9 1.9 2.1 0.1 3.6 1.8 3.7 3.8 0.3-2 1.8-3.6 3.8-3.7-2-0.3-3.3-1.6-3.6-3.7h-0.2c0 0.7-0.1 1.4 0.2 1.7z"/>
  <path class="cls-2" d="m51.7 7.1c-0.3 6.5-1.3 16.2-2.7 21.4l-7.6-5.4 5.2 7.7-20.1 2.3v0.2l20.2 2.3-5.4 7.6 7.6-5.2 2.3 21.7h0.3l2.4-21.7 7.1 5.2 0.1-0.1-5.2-7.5 18.1-2.3v-0.2l-18-2.4 5.1-7.5-0.1-0.1-7.2 5.2c-1-5.1-2-14.7-2.3-21.2h-0.3 0.5zm-0.4 26-2.4-2.5c0.7-3.3 1.8-12.7 2.3-17.3v19.8h0.1zm2.5-4.4 6.1-4.3-5.9 5.5-0.2-1.2zm-5.1 1.7-5.9-5.8 6.1 4.5-0.2 1.3zm0.4 5.3-19.2-2.3h21.3l-2.1 2.3zm-0.3 2-6.1 4.2 6.2-5.8 0.2 1.5-0.3 0.1zm5-0.3-0.1-1.4 6.2 5.9-6.1-4.5zm0.3-1.6-2-2.2h17.5l-15.5 2.2zm-0.2-5.1 0.1-0.8 6-5.5-4.1 6.2-2 0.1zm-2.4 21.6v-18.9l2.3 2.3-2.3 16.6z"/>
  <path class="cls-1" d="m32.9 31.7c0.7-8.7 7.8-16.1 16.9-17v-0.4c-8.8 0.6-16.8 8.1-17.4 17.4h0.5z"/>
  <path class="cls-1" d="m32.9 34.6h-0.4c0.5 8.6 7.2 17 17.4 17.9v-0.3c-9-0.4-16.4-8.1-17-17.6z"/>
  <path class="cls-1" d="m52.7 14.5"/>
  <path class="cls-1" d="m52.8 14.5"/>
  <path class="cls-1" d="m52.8 14.3"/>
  <path class="cls-1" d="m52.8 14.3c2.5 0.1 4.8 0.9 7.5 2.4l0.2-0.1c-2.2-1.3-4.8-2.2-7.7-2.3z"/>
  <path class="cls-1" d="m52.8 52.2v0.3c2.4-0.2 5.7-1 7.6-2.3l-0.1-0.3c-2.3 1.2-4.7 1.9-7.5 2.3z"/>
  <path class="cls-2" d="m35.3 29.5c0 0.3-0.6 0.8-0.7 0.3-0.1-0.6 0.6-0.7 0.7-0.3z"/>
  <path class="cls-2" d="m36.3 26.6c-0.1 0.3-0.5 0.8-0.7 0.4-0.3-0.4 0.6-1.1 0.7-0.4z"/>
  <path class="cls-2" d="m37.5 24c-0.1 0.3-0.6 0.7-0.7 0.3-0.3-0.5 0.7-1 0.7-0.3z"/>
  <path class="cls-2" d="m38.8 22.4c-0.3 0.2-0.7-0.2-0.4-0.5 0.3-0.2 0.7 0.2 0.4 0.5z"/>
  <path class="cls-2" d="m39.9 20.7c0.5 0.4-0.5 0.7-0.4 0.2l0.4-0.2z"/>
  <path class="cls-2" d="m41.9 19.2c0.4 0.4-0.5 0.9-0.6 0.3 0-0.2 0.3-0.5 0.6-0.3z"/>
  <path class="cls-2" d="m43.3 18.4c0.6 0.6-0.5 0.9-0.6 0.3l0.6-0.3z"/>
  <path class="cls-2" d="m45.4 17.4c0.3 0.5-0.8 0.9-0.8 0.2 0-0.3 0.6-0.4 0.8-0.2z"/>
  <path class="cls-2" d="m48.2 16.6c0.2 0.6-0.9 0.7-0.7 0.1 0.1-0.2 0.5-0.4 0.7-0.1z"/>
  <path class="cls-2" d="m55.1 16.5c0.5 0.6-0.8 0.9-0.8 0.3 0.1-0.3 0.6-0.5 0.8-0.3z"/>
  <path class="cls-2" d="m57.7 17.4c0.5 0.6-0.7 0.8-0.7 0.2 0-0.2 0.5-0.4 0.7-0.2z"/>
  <path class="cls-2" d="m35 36.5c0.6 0.6-0.4 1.1-0.4 0.4 0-0.3 0.3-0.6 0.4-0.4z"/>
  <path class="cls-2" d="m36.3 39.5c0 0.5-0.8 0.7-0.7 0 0-0.4 0.6-0.4 0.7 0z"/>
  <path class="cls-2" d="m37.5 42c0.4 0.7-0.9 0.7-0.7 0.1 0-0.3 0.6-0.4 0.7-0.1z"/>
  <path class="cls-2" d="m39 44.3c0.5 0.7-0.6 0.5-0.7 0s0.4-0.4 0.7 0z"/>
  <path class="cls-2" d="m41 46.2c0.6 0.7-0.6 0.4-0.8 0-0.3-0.5 0.5-0.2 0.8 0z"/>
  <path class="cls-2" d="m43.2 47.6c0.3 0.7-1 0.6-0.7 0 0.1-0.2 0.6-0.1 0.7 0z"/>
  <path class="cls-2" d="m45.4 48.8c0.5 0.8-0.9 0.7-0.7 0.1 0.1-0.3 0.6-0.3 0.7-0.1z"/>
  <path class="cls-2" d="m48.1 49.7c0.5 0.6-0.7 0.8-0.6 0.2 0-0.3 0.4-0.3 0.6-0.2z"/>
  <path class="cls-2" d="m55 49.6c0.5 0.6-0.8 0.9-0.7 0.3 0-0.3 0.4-0.4 0.7-0.3z"/>
  <path class="cls-2" d="m57.7 48.8c0.5 0.6-0.7 0.9-0.6 0.2 0-0.2 0.5-0.4 0.6-0.2z"/>
  <path class="cls-4" d="m53.6 12.2c3.8-4.9 12.2-12 24.5-12 17.3-0.1 30.8 13.5 32.3 28.7"/>
  <path class="cls-4" d="m54.4 13.3c3.7-4.9 11.5-11.8 23.5-11.8 13.8 0 27.9 9.5 30.5 25.7"/>
  <path class="cls-4" d="m54.5 53.8c3.8 4.9 11.3 11 23.4 11.1 14 0 27.8-8.5 30.5-25.5"/>
  <path class="cls-4" d="m53.6 54.8c4 4.9 11.4 11.5 24 11.6 15 0 30.1-8.5 32.8-27.6"/>
  <path class="cls-1" d="m54.4 13.3"/>
  <path class="cls-0" d="m1.5 85.3c0.5 2.4 2 4.2 4.4 4.2 2 0 3.1-1.4 3.1-2.9 0-4-7.1-4-7.1-8.9 0-2.3 1.9-4.4 4.3-4.4 1.2 0 2.4 0.2 3.1 0.6l0.2 3.4h-0.2c-0.6-2.4-1.9-3.6-3.6-3.6-1.6 0-2.8 0.9-2.8 2.6 0 3.9 7.3 3.9 7.3 9.2 0 2.3-1.8 4.4-4.5 4.4-1.6 0-3.6-0.3-4.1-1.1l-0.1-3.5z"/>
  <path class="cls-0" d="m14.3 89.5c1.2 0 1.9-0.4 2.6-2l5.4-14.2h0.2l6 14.2c0.5 1.4 1 2 2.1 2v0.2h-5.8v-0.2c1.3 0 2-0.3 1.4-1.7l-1.5-3.7h-6l-1.3 3.3c-0.5 1.5 0.2 2.1 1.5 2.1v0.2h-4.6v-0.2zm10.1-5.9-2.7-7.4-2.7 7.4h5.4z"/>
  <path class="cls-0" d="m35.2 89.5c1.6 0 2-0.4 2-1.7v-12.1c0-1.2-0.4-1.9-2-1.9v-0.2h11.4l0.1 3.4h-0.2c-0.3-1.7-1.2-3-3.2-3h-3.4c-0.7 0-0.8 0.3-0.8 1.1v6.2h2.8c1.5 0 2.5-0.6 2.5-2.4h0.3v5.6h-0.3c0-1.5-0.8-2.4-2.5-2.4h-2.8v5.7c0 1.3 0.5 1.7 2.1 1.7v0.2h-6v-0.2z"/>
  <path class="cls-0" d="m51.5 89.5c1.6 0 2.1-0.4 2.1-1.7v-12.1c0-1.1-0.6-1.9-2.1-1.9v-0.2h11.3l0.1 3.4h-0.3c-0.1-2-1.4-3-3-3h-3.1c-0.6 0-1 0.3-1 0.8v6.5h3.1c1.4 0 2-0.6 2.1-2.4h0.3v5.4h-0.3c-0.1-1.7-0.8-2.4-2.1-2.4h-3.1v6.2c0 1.1 0.4 1.1 1.4 1.1h3c2.1 0 3-1 3.6-3.1h0.2l-0.4 3.6h-11.8v-0.2z"/>
  <path class="cls-0" d="m79.2 89.5c1.8 0 2-0.4 2-1.6v-13.9h-2.1c-2 0-3.2 1.2-3.4 3.3h-0.1l0.1-3.7h13.7l0.1 3.7h-0.2c-0.2-2.1-1.4-3.3-3.4-3.3h-2.5v13.8c0 1.3 0.5 1.7 2.1 1.7v0.2h-6.3v-0.2z"/>
  <path class="cls-0" d="m93.2 81.9c0-4.2 3.4-8.6 8.3-8.6 4.1-0.1 8.1 2.8 8.2 8.1 0 4.5-3.4 8.5-8.2 8.5-4.7 0-8.3-2.8-8.3-8zm14.3 0.2c0-4.9-2.7-8.4-6.3-8.4-3.2 0-5.9 2.9-5.9 7.4 0 4.8 2.7 8.3 6.3 8.4 3.2 0 5.9-2.8 5.9-7.4z"/>
  <path class="cls-0" d="m116.3 84.5v-8.8c0-1.4-0.3-1.9-2-1.9v-0.2h5.8v0.2c-1.5 0-2 0.6-2 1.8v8.7c0 3.4 1.9 4.9 4.7 4.9s4.9-1.4 4.9-4.7v-8.2c0-1.7-0.6-2.5-2.2-2.5v-0.2h5v0.2c-1.5 0-2 0.8-2 2.3v8.4c0 3.8-2.3 5.4-5.9 5.4-3.3 0-6.3-1.3-6.3-5.4z"/>
  <path class="cls-0" d="m134.4 89.5c1.6 0 2-0.4 2-1.7v-12.1c0-1.1-0.5-1.9-2-1.9v-0.2h6c3.6 0 4.9 1.7 4.9 3.7 0 1.9-1.6 4-3.5 4.6 1.2 1 3.7 5.5 4.8 6.7 0.5 0.6 1.3 0.9 1.9 0.9v0.2h-2.1c-0.9 0-1.8-0.4-2.5-1.3l-3.7-5.8c-0.3-0.5-0.4-0.5-2.1-0.5v5.7c0 1.3 0.5 1.7 1.9 1.7v0.2h-5.6v-0.2zm5.6-7.8c2.1 0 3.2-1.8 3.2-3.8 0-1.8-1.1-3.9-3.6-3.9h-0.9c-0.6 0-0.6 0.1-0.6 0.6v7.1h1.9z"/>
  <line class="cls-3" x1="19.6" x2="70.2" y1="96.8" y2="96.8"/>
  <line class="cls-3" x1="77" x2="129.3" y1="96.8" y2="96.8"/>
  <path class="cls-2" d="m73.6 95c-0.2 0.6-1 1.6-2 1.8 1 0.2 1.8 1 2 1.9h0.1c0.3-0.8 0.9-1.7 1.9-1.8v-0.2c-1-0.1-1.6-1.1-2-1.7z"/>
  <path class="cls-0" d="m15 105.8c0.3 0 0.3-0.1 0.3-0.2v-2.3c0-0.2-0.1-0.3-0.3-0.3h1.4c1.4 0 1.7 0.9 1.7 1.5 0 0.8-0.5 1.5-1.6 1.5h-1.5v-0.2zm1.5 0.1c0.9 0 1.2-0.7 1.2-1.3 0-0.7-0.3-1.4-1.3-1.4h-0.7v2.4c0 0.1 0 0.3 0.8 0.3z"/>
  <path class="cls-0" d="m19.6 105.8c0.3 0 0.3-0.1 0.3-0.3v-2.2c0-0.2-0.1-0.3-0.3-0.3h1c-0.3 0-0.3 0.2-0.3 0.3v2.3c0 0.1 0.1 0.2 0.3 0.3v0.1h-1v-0.2z"/>
  <path class="cls-0" d="m22.3 105.2h0.1c0.1 0.5 0.4 0.7 0.9 0.7 0.3 0 0.5-0.3 0.5-0.6 0-0.7-1.4-0.8-1.4-1.6 0-0.4 0.4-0.8 0.9-0.8 0.2 0 0.5 0.1 0.6 0.1l0.1 0.5h-0.1c-0.1-0.3-0.3-0.4-0.6-0.4s-0.7 0.1-0.7 0.5c0 0.7 1.5 0.8 1.5 1.7 0 0.4-0.4 0.8-0.8 0.8s-0.9-0.1-1-0.3v-0.6z"/>
  <path class="cls-0" d="m25.7 105.8c0.3 0 0.3-0.1 0.3-0.2v-2.3c0-0.1-0.1-0.3-0.3-0.3h2.1v0.6h-0.1c-0.1-0.3-0.2-0.4-0.5-0.4h-0.8v1.2h0.7c0.2 0 0.3-0.1 0.4-0.3h0.1v0.7h-0.1c0-0.2-0.2-0.2-0.4-0.2h-0.7v1.1c0 0.2 0.1 0.2 0.2 0.2h0.7c0.3 0 0.5-0.2 0.6-0.6h0.1l-0.2 0.7h-2.1v-0.2z"/>
  <path class="cls-0" d="m30 103.5v2c0 0.2 0.1 0.3 0.4 0.3v0.2h-0.9v-0.2c0.3 0 0.3-0.1 0.3-0.3l0.2-2.5 2.3 2.3v-1.8c0-0.3 0-0.5-0.3-0.5h0.8c-0.4 0-0.4 0.3-0.4 0.5v2.6l-2.3-2.4-0.1-0.2zm0.6-0.9-0.1-0.1c0.1-0.2 0.4-0.5 0.6-0.5 0.3 0 0.4 0.3 0.6 0.3 0.1 0 0.2-0.1 0.3-0.3l0.1 0.1c-0.1 0.2-0.3 0.4-0.5 0.4-0.3 0-0.4-0.2-0.6-0.2-0.1 0-0.2 0.1-0.4 0.3z"/>
  <path class="cls-0" d="m34.1 105.8c0.3 0 0.3-0.1 0.5-0.5l1.3-2.4 1.2 2.6c0.1 0.2 0.2 0.3 0.4 0.3v0.1h-1.1v-0.1c0.2 0 0.4 0 0.2-0.3l-0.2-0.7h-1.2l-0.3 0.8c-0.1 0.1 0 0.2 0.3 0.2v0.2h-1.1v-0.2zm2.3-1.2-0.5-1.2-0.6 1.2h1.1z"/>
  <path class="cls-0" d="m38.6 105.8c0.3 0 0.4-0.1 0.4-0.3l0.3-2.5 1.3 2.3 1.2-2.4 0.5 2.6c0 0.2 0.1 0.3 0.3 0.3v0.2h-1v-0.2c0.3 0 0.4 0 0.3-0.3l-0.2-1.8-1.1 2.3-1.1-2.3-0.3 1.9c0 0.1 0.1 0.2 0.3 0.2v0.2h-0.9v-0.2z"/>
  <path class="cls-0" d="m43.9 104.5c0-0.8 0.7-1.6 1.7-1.6 0.8 0 1.7 0.6 1.7 1.6 0 0.8-0.7 1.6-1.7 1.6-0.8 0-1.7-0.5-1.7-1.6zm2.9 0.1c0-1-0.5-1.5-1.2-1.5-0.6 0-1.2 0.5-1.2 1.4 0 0.8 0.5 1.4 1.2 1.4 0.6 0 1.2-0.4 1.2-1.3z"/>
  <path class="cls-0" d="m48.9 105.2h0.1c0.1 0.5 0.4 0.7 0.9 0.7 0.3 0 0.6-0.3 0.6-0.6 0-0.7-1.5-0.8-1.5-1.6 0-0.4 0.4-0.8 0.9-0.8 0.2 0 0.5 0.1 0.6 0.1l0.1 0.5c-0.1-0.3-0.4-0.4-0.7-0.4s-0.6 0.1-0.6 0.5c0 0.7 1.5 0.8 1.5 1.7 0 0.4-0.4 0.8-0.9 0.8-0.3 0-0.8-0.1-0.9-0.3l-0.1-0.6z"/>
  <path class="cls-0" d="m55.2 105.8c0.3 0 0.4-0.1 0.4-0.3v-2.3h-0.5c-0.4 0-0.5 0.1-0.6 0.4l0.1-0.6h2.6l0.1 0.6h-0.1c0-0.3-0.2-0.4-0.5-0.4h-0.6v2.4c0 0.1 0.1 0.2 0.3 0.3v0.1h-1.2v-0.2z"/>
  <path class="cls-0" d="m58.8 104.9v-1.6c0-0.1-0.1-0.2-0.3-0.3h1c-0.3 0-0.3 0.2-0.3 0.3v1.7c0 0.6 0.4 0.9 0.9 0.9 0.6 0 1-0.3 1-0.9v-1.5c0-0.3 0-0.5-0.4-0.5h1c-0.3 0-0.4 0.2-0.4 0.5v1.5c0 0.7-0.5 1.1-1.2 1.1-0.6 0-1.3-0.4-1.3-1.2z"/>
  <path class="cls-0" d="m65.3 105.8c0.3 0 0.3-0.1 0.3-0.2v-2.3c0-0.1-0.1-0.3-0.2-0.3h1.1c0.6 0 1 0.4 1 0.9 0 0.4-0.3 0.8-0.9 0.8h-0.5v-0.1h0.4c0.4 0 0.6-0.3 0.6-0.7 0-0.3-0.2-0.7-0.7-0.7h-0.5v2.4c0 0.1 0.1 0.2 0.4 0.3v0.1h-1v-0.2z"/>
  <path class="cls-0" d="m68.9 105.8c0.3 0 0.3-0.1 0.3-0.2v-2.3c0-0.1-0.1-0.3-0.3-0.3h1.2c0.7 0 1 0.4 1 0.8 0 0.3-0.2 0.8-0.7 0.8l0.7 0.9c0.2 0.2 0.5 0.3 0.6 0.3v0.2h-0.4c-0.2 0-0.4-0.1-0.5-0.3l-0.7-1c-0.1-0.1-0.1-0.1-0.5-0.1v1c0 0.1 0.1 0.2 0.3 0.3v0.1h-1v-0.2zm1-1.3c0.5 0 0.8-0.2 0.8-0.7 0-0.3-0.2-0.6-0.7-0.6h-0.4v1.3h0.3z"/>
  <path class="cls-0" d="m72.9 104.5c0-0.8 0.7-1.6 1.6-1.6s1.6 0.6 1.6 1.6c0 0.8-0.7 1.6-1.6 1.6s-1.6-0.5-1.6-1.6zm2.8 0.1c0-1-0.5-1.5-1.3-1.5-0.6 0-1.1 0.5-1.1 1.4 0 0.8 0.5 1.4 1.2 1.4 0.6 0 1.2-0.4 1.2-1.3zm-1.4-2 0.5-0.6 0.3 0.2-0.7 0.5-0.1-0.1z"/>
  <path class="cls-0" d="m77.2 105.8c0.3 0 0.4-0.1 0.6-0.3l0.8-1.1-0.8-1.1c-0.1-0.2-0.3-0.3-0.5-0.3h1.1c-0.2 0-0.3 0.2-0.2 0.3l0.6 1 0.7-0.9c0.1-0.2 0.1-0.3-0.2-0.4h0.9c-0.3 0.1-0.4 0.2-0.5 0.4l-0.8 1 0.8 1.1c0.2 0.2 0.3 0.3 0.5 0.3v0.2h-1.1v-0.2c0.2 0 0.3-0.1 0.2-0.3l-0.6-0.9-0.6 1c-0.2 0.1-0.1 0.2 0.1 0.2v0.2h-1v-0.2z"/>
  <path class="cls-0" d="m81.5 105.8c0.3 0 0.3-0.1 0.3-0.3v-2.2c0-0.2-0.1-0.3-0.3-0.3h1c-0.3 0-0.3 0.2-0.3 0.3v2.3c0 0.1 0.1 0.2 0.3 0.3v0.1h-1v-0.2z"/>
  <path class="cls-0" d="m84.1 105.8c0.3 0 0.4-0.1 0.4-0.3l0.3-2.6 1.3 2.4 1.3-2.4 0.4 2.6c0 0.2 0.1 0.3 0.3 0.3v0.2h-0.9v-0.2c0.2 0 0.3 0 0.2-0.3l-0.2-1.8-1.1 2.3-1.1-2.3-0.3 1.9c0 0.1 0.1 0.2 0.3 0.2v0.2h-0.9v-0.2z"/>
  <path class="cls-0" d="m89.4 105.8c0.2 0 0.2-0.1 0.4-0.5l1.3-2.4 1.2 2.6c0.1 0.2 0.3 0.3 0.4 0.3v0.1h-1v-0.1c0.2 0 0.3 0 0.2-0.3l-0.3-0.7h-1.2l-0.3 0.8c-0.1 0.1 0 0.2 0.3 0.2v0.2h-1v-0.2zm2.2-1.2-0.5-1.2-0.6 1.2h1.1z"/>
  <path class="cls-0" d="m96.2 105.8c0.3 0 0.3-0.1 0.3-0.2v-2.3c0-0.1-0.1-0.3-0.3-0.3h2.1v0.6h-0.1c0-0.3-0.2-0.4-0.5-0.4h-0.8v1.2h0.7c0.2 0 0.4-0.1 0.4-0.3h0.1v0.7h-0.1c0-0.2-0.1-0.2-0.4-0.2h-0.7v1.1c0 0.2 0.1 0.2 0.2 0.2h0.7c0.4 0 0.6-0.2 0.7-0.6h0.1l-0.3 0.7h-2.1v-0.2z"/>
  <path class="cls-0" d="m99.7 105.8c0.3 0 0.5-0.1 0.6-0.3l0.8-1.1-0.8-1.1c-0.1-0.2-0.2-0.3-0.4-0.3h1.1c-0.3 0-0.4 0.2-0.3 0.3l0.6 1 0.7-0.9c0.1-0.2 0.1-0.3-0.2-0.4h1c-0.3 0.1-0.4 0.2-0.6 0.4l-0.7 1 0.8 1.1c0.2 0.2 0.3 0.3 0.5 0.3v0.2h-1.1v-0.2c0.2 0 0.3-0.1 0.2-0.3l-0.6-0.9-0.7 1c-0.1 0.1 0 0.2 0.2 0.2v0.2h-1.1v-0.2z"/>
  <path class="cls-0" d="m104.2 105.8c0.3 0 0.3-0.1 0.3-0.2v-2.3c0-0.1-0.1-0.3-0.3-0.3h1.1c0.7 0 1.1 0.4 1.1 0.9 0 0.4-0.3 0.8-0.9 0.8h-0.6v-0.1h0.5c0.4 0 0.6-0.3 0.6-0.7 0-0.3-0.2-0.7-0.7-0.7h-0.5v2.4c0 0.1 0.1 0.2 0.3 0.3v0.1h-0.9v-0.2z"/>
  <path class="cls-0" d="m107.8 105.8c0.3 0 0.3-0.1 0.3-0.2v-2.3c0-0.1-0.1-0.3-0.3-0.3h2.2v0.6h-0.1c-0.1-0.3-0.3-0.4-0.6-0.4h-0.7v1.2h0.7c0.2 0 0.3-0.1 0.4-0.3v0.7c-0.1-0.2-0.2-0.2-0.4-0.2h-0.7v1.1c0 0.2 0.1 0.2 0.2 0.2h0.7c0.3 0 0.5-0.2 0.6-0.6h0.1l-0.2 0.7h-2.2v-0.2z"/>
  <path class="cls-0" d="m111.8 105.8c0.3 0 0.3-0.1 0.3-0.2v-2.3c0-0.1-0.1-0.3-0.3-0.3h1.2c0.7 0 1.1 0.4 1.1 0.8 0 0.3-0.3 0.8-0.8 0.8l0.8 0.9c0.2 0.2 0.4 0.3 0.6 0.3v0.2h-0.5c-0.1 0-0.4-0.1-0.5-0.3l-0.7-1c-0.1-0.1-0.1-0.1-0.5-0.1v1c0 0.1 0.1 0.2 0.4 0.3v0.1h-1.1v-0.2zm1.1-1.3c0.4 0 0.8-0.2 0.8-0.7 0-0.3-0.2-0.6-0.7-0.6h-0.5v1.3h0.4z"/>
  <path class="cls-0" d="m115.9 105.8c0.3 0 0.3-0.1 0.3-0.3v-2.2c0-0.2-0.1-0.3-0.3-0.3h1c-0.3 0-0.3 0.2-0.3 0.3v2.3c0 0.1 0.1 0.2 0.3 0.3v0.1h-1v-0.2z"/>
  <path class="cls-0" d="m118.3 105.8c0.3 0 0.3-0.1 0.3-0.2v-2.3c0-0.1-0.1-0.3-0.3-0.3h2.1v0.6c-0.1-0.3-0.3-0.4-0.6-0.4h-0.8v1.2h0.7c0.3 0 0.4-0.1 0.4-0.3h0.1v0.7h-0.1c0-0.2-0.1-0.2-0.4-0.2h-0.7v1.1c0 0.2 0.1 0.2 0.2 0.2h0.7c0.4 0 0.6-0.2 0.7-0.6l-0.2 0.7h-2.1v-0.2z"/>
  <path class="cls-0" d="m122.7 103.5v2c0 0.2 0 0.3 0.3 0.3v0.2h-0.8v-0.2c0.2 0 0.3-0.1 0.3-0.3l0.1-2.6 2.4 2.4v-1.8c0-0.3-0.1-0.4-0.4-0.5h0.9c-0.3 0-0.4 0.3-0.4 0.5v2.6l-2.3-2.4-0.1-0.2z"/>
  <path class="cls-0" d="m127.1 104.5c0-0.8 0.7-1.6 1.7-1.6 0.3 0 0.8 0.2 1.1 0.3l0.1 0.6h-0.1c-0.2-0.5-0.5-0.7-1.1-0.7-0.7 0-1.2 0.5-1.2 1.4 0 0.8 0.5 1.4 1.2 1.4 0.5 0 1-0.3 1.1-0.9h0.2l-0.1 0.6c-0.3 0.3-0.7 0.5-1.2 0.5-0.9 0-1.7-0.6-1.7-1.6z"/>
  <path class="cls-0" d="m131.6 105.8c0.3 0 0.3-0.1 0.3-0.3v-2.2c0-0.2-0.1-0.3-0.3-0.3h1.1c-0.3 0-0.3 0.2-0.3 0.3v2.3c0 0.1 0.1 0.2 0.3 0.3v0.1h-1.1v-0.2z"/>
  <path class="cls-0" d="m134 105.8c0.2 0 0.3-0.1 0.4-0.5l1.2-2.4 1.1 2.6c0.2 0.2 0.3 0.3 0.4 0.3v0.2h-1v-0.2c0.2 0 0.3 0 0.2-0.3l-0.2-0.7h-1.2l-0.4 0.8c0 0.1 0 0.2 0.3 0.2v0.2h-0.8v-0.2zm2-1.2-0.5-1.2-0.6 1.2h1.1z"/>
</svg>